<svg width="36" height="36" viewBox="0 0 36 36" fill="none" xmlns="http://www.w3.org/2000/svg">
<g clip-path="url(#clip0_447_667)">
<path d="M4.04789 29.644C3.23689 29.086 2.50689 25.571 3.11189 25.24C3.84989 24.838 3.79789 26.075 5.36689 27.602C6.93589 29.13 11.8369 28.515 13.0749 28.928C14.4379 29.383 6.68989 31.461 4.04789 29.644Z" fill="#C1694F"/>
<path d="M5.36681 27.603C3.99981 22 4.65481 18.919 5.43281 16.861C6.79981 13.24 16.6988 5.169 23.7998 2.637C25.6778 1.967 31.6198 1 34.9998 1C35.5888 3.332 33.8258 7.717 33.3798 8.518C32.3708 10.328 29.8158 12.791 24.7338 18C24.4818 18.258 19.6148 17.54 19.3578 17.809C19.0748 18.105 23.4018 19.388 23.1128 19.698C22.3748 20.488 21.6178 21.322 20.8448 22.205C20.6728 22.401 12.5338 21.282 12.3608 21.483C12.1288 21.753 19.8618 23.345 19.6268 23.623C18.9818 24.388 18.3278 25.187 17.6678 26.02C15.9428 28.198 5.36681 27.603 5.36681 27.603Z" fill="#D99E82"/>
<path d="M19.1498 12.787C20.7378 13.753 24.4808 14.73 27.4658 15.209C29.3638 13.272 30.7648 11.831 31.7678 10.68C29.5088 10.19 26.0258 9.38 24.2808 8.593L23.4648 8.19L18.5928 12.36L19.1498 12.787Z" fill="#C1694F"/>
<path d="M35.088 1.514C35.0704 1.34087 35.041 1.16915 35 1C34.622 1 34.208 1.014 33.775 1.036C30.337 1.214 25.468 2.042 23.8 2.637C23.455 2.76 23.098 2.907 22.741 3.055C22.263 3.253 21.777 3.471 21.282 3.709C21.638 5.19 22.408 6.853 23.089 7.722C21.4175 9.02207 19.8039 10.3951 18.253 11.837C12.598 17.085 8.23205 22.709 5.24805 27.079C5.28805 27.253 5.32405 27.423 5.36805 27.603C5.36805 27.603 5.58705 27.615 5.95705 27.629C7.43905 25.341 11.66 19.39 19.151 12.788C20.8099 11.3283 22.521 9.92901 24.281 8.593C26.026 9.38 29.509 10.19 31.768 10.68C32.09 10.311 32.374 9.968 32.617 9.652C32.933 9.24 33.186 8.867 33.38 8.518C33.795 7.772 35.349 3.924 35.088 1.514Z" fill="#662113"/>
<path d="M34.9999 1C34.6309 1 34.2489 0.997004 33.8619 0.992004C29.9469 2.866 26.3529 5.186 23.0899 7.722C22.4099 6.852 21.6389 5.19 21.2829 3.709C19.7384 4.46403 18.241 5.31191 16.7989 6.248C17.1079 8.159 17.6509 10.625 18.2539 11.837C6.82693 22.441 0.637932 34.605 0.552932 34.776C0.493524 34.8947 0.483696 35.0321 0.52561 35.158C0.567525 35.284 0.657748 35.3881 0.776433 35.4475C0.895117 35.5069 1.03254 35.5167 1.15847 35.4748C1.2844 35.4329 1.38852 35.3427 1.44793 35.224C1.56693 34.986 13.5919 11.341 35.1069 1.504C35.0769 1.33486 35.0412 1.16676 34.9999 1Z" fill="#C1694F"/>
</g>
<defs>
<clipPath id="clip0_447_667">
<rect width="36" height="36" fill="white"/>
</clipPath>
</defs>
</svg>
