<svg width="44" height="44" viewBox="0 0 44 44" fill="none" xmlns="http://www.w3.org/2000/svg">
<path opacity="0.8" d="M38.7576 36.2588C38.7576 36.2588 40.4042 33.5981 40.5967 32.4363C40.7892 31.2744 41.0332 29.3391 40.7892 29.3391C40.5486 29.3391 39.6273 31.2263 39.4829 31.13C39.3386 31.0338 40.2564 28.0809 40.1601 27.0153C40.0639 25.9497 39.3867 24.1106 39.2423 24.2069C39.0979 24.3031 38.1767 27.2078 37.7917 27.885C37.4067 28.5622 36.2929 30.305 36.2929 30.305C36.2929 30.305 33.3401 30.5456 31.6489 31.3706C29.9542 32.1922 26.8089 34.1275 26.857 34.5641C26.9051 35.0006 31.697 35.145 33.1476 35.0488C34.5982 34.9525 35.8564 34.5641 35.8564 34.5641C35.8564 34.5641 33.5807 35.9184 33.677 36.2106C33.7732 36.5028 35.4198 36.6472 36.5336 36.6472C37.6439 36.6438 38.7576 36.2588 38.7576 36.2588Z" fill="url(#paint0_radial_449_715)"/>
<path d="M35.9254 19.8516C34.0417 17.3353 30.147 12.3853 20.742 6.35937C11.9832 0.745935 3.35853 0.536248 2.21728 1.61906C1.6604 2.145 1.38884 3.08344 1.59853 5.03594C1.76009 6.52781 2.49915 8.67281 3.94634 10.0341C4.31415 10.3778 5.12197 10.8212 6.05353 11.1787C7.4354 11.7081 8.49072 11.7287 8.49072 12.1137C8.49072 12.4987 7.47322 12.7909 6.50728 12.6466C5.5379 12.5022 4.52384 12.1137 4.52384 12.1137L6.94384 14.9222C6.94384 14.9222 8.37384 14.8225 9.21947 14.6334C10.017 14.4547 11.1548 13.8497 11.3473 14.2828C11.5398 14.7194 10.6942 15.1456 9.92072 15.4859C9.14728 15.8262 8.05759 16.0359 8.05759 16.0359C8.05759 16.0359 13.8635 20.7316 15.4138 22.5706C16.9642 24.4097 22.141 30.1194 23.5435 30.9925C24.946 31.8622 26.0117 32.7834 28.5279 32.7353C31.0442 32.6872 38.0498 32.7628 38.0498 32.7628C38.0498 32.7628 37.9226 27.8437 37.9226 25.9084C37.9226 23.9662 36.8845 21.1372 35.9254 19.8516Z" fill="url(#paint1_linear_449_715)"/>
<path d="M30.6694 20.735C30.6694 20.735 29.9819 18.755 30.274 17.7375C30.5628 16.72 31.8209 15.5306 31.8209 15.5306C31.8209 15.5306 33.7597 17.7994 34.1687 19.2362C34.7634 21.3331 34.5228 22.3575 33.8009 23.7428C32.9484 25.3722 29.1122 25.7847 27.0806 25.3825C25.9256 25.1522 23.7428 24.3169 23.7428 24.3169C23.7428 24.3169 25.6781 21.5084 27.4209 20.9309C29.1637 20.3534 30.6694 20.735 30.6694 20.735ZM24.5609 9.34312C24.5609 9.34312 23.7325 9.97562 23.5434 11.6669C23.4231 12.7566 23.8322 14.2072 23.8322 14.2072C23.8322 14.2072 22.1512 14.1487 20.5906 14.7881C18.2187 15.7575 17.105 17.7409 17.105 17.7409C17.105 17.7409 18.8478 18.5625 20.7522 18.8547C22.0481 19.0506 24.2206 18.9991 26.204 17.7409C27.3556 17.0122 27.6065 16.9194 27.6065 16.9194C27.6065 16.9194 27.9262 13.6091 27.0256 11.9109C26.0322 10.0203 24.5609 9.34312 24.5609 9.34312Z" fill="#6F4838"/>
<path d="M19.8926 10.6837C19.8926 10.6837 20.2811 9.31906 19.7104 7.97499C19.1432 6.63437 17.3626 4.84343 17.3626 4.84343C17.3626 4.84343 16.4345 6.47624 16.2386 7.23937C15.9498 8.35312 16.8195 9.75562 16.8195 9.75562C16.8195 9.75562 15.2211 10.01 14.2551 10.6734C12.0757 12.1722 11.787 14.2553 11.787 14.2553C11.787 14.2553 14.7432 13.9253 16.3348 13.4819C18.5932 12.8528 19.9648 11.6909 19.9648 11.6909L19.8926 10.6837ZM12.9798 7.17406C12.9798 7.17406 12.1273 8.27406 10.1989 8.57656C8.7173 8.80687 6.22168 8.83437 6.22168 8.83437C6.22168 8.83437 7.19105 7.47999 7.96449 6.60687C8.73793 5.73374 10.4429 5.74406 10.4429 5.74406C10.4429 5.74406 9.37043 4.18687 9.41855 3.75374C9.46668 3.32062 9.80699 2.39937 9.80699 2.39937C9.80699 2.39937 11.2576 2.93218 12.0826 4.43093C12.9076 5.92968 12.9798 7.17406 12.9798 7.17406Z" fill="#734B42"/>
<path d="M42.3055 41.7897C42.6526 41.6625 42.6458 41.1159 42.6458 40.7034C42.6458 40.2909 37.3692 27.9813 32.7973 22.2647C28.5073 16.8988 22.2511 12.5331 19.1917 10.2369C14.1592 6.4625 3.54421 2.19313 2.86359 2.00063C2.18296 1.80813 1.79453 2.10719 2.49578 2.54375C3.19703 2.98031 10.2061 5.445 18.6589 11.11C25.5442 15.7231 28.7892 19.305 31.2745 22.8869C33.7598 26.4688 36.7539 31.7041 37.7851 34.1584C38.8164 36.6128 40.3358 40.1775 40.5283 40.6416C40.7586 41.2088 41.8139 41.9719 42.3055 41.7897Z" fill="url(#paint2_linear_449_715)"/>
<defs>
<radialGradient id="paint0_radial_449_715" cx="0" cy="0" r="1" gradientUnits="userSpaceOnUse" gradientTransform="translate(35.7295 31.7714) scale(7.43428)">
<stop stop-color="white"/>
<stop offset="0.096" stop-color="#FEF8EF"/>
<stop offset="0.272" stop-color="#FDEED9"/>
<stop offset="0.463" stop-color="#FDE7C9"/>
<stop offset="0.678" stop-color="#FCE3BF"/>
<stop offset="0.965" stop-color="#FCE2BC"/>
</radialGradient>
<linearGradient id="paint1_linear_449_715" x1="18.3612" y1="13.5998" x2="34.7154" y2="34.396" gradientUnits="userSpaceOnUse">
<stop stop-color="#AE7237"/>
<stop offset="0.208" stop-color="#B0753A"/>
<stop offset="0.373" stop-color="#B67D44"/>
<stop offset="0.523" stop-color="#BF8B55"/>
<stop offset="0.664" stop-color="#CD9F6C"/>
<stop offset="0.799" stop-color="#DFB98B"/>
<stop offset="0.927" stop-color="#F5D8B0"/>
<stop offset="0.965" stop-color="#FCE2BC"/>
</linearGradient>
<linearGradient id="paint2_linear_449_715" x1="37.7322" y1="40.7227" x2="16.4909" y2="10.8298" gradientUnits="userSpaceOnUse">
<stop offset="0.074" stop-color="#CECECE"/>
<stop offset="0.285" stop-color="#A69C99"/>
<stop offset="0.497" stop-color="#84706B"/>
<stop offset="0.686" stop-color="#6B504A"/>
<stop offset="0.842" stop-color="#5C3D35"/>
<stop offset="0.946" stop-color="#56362E"/>
</linearGradient>
</defs>
</svg>
