<svg width="44" height="44" viewBox="0 0 44 44" fill="none" xmlns="http://www.w3.org/2000/svg">
<path d="M7.60742 6.41093H15.579V11.5947H7.60742V6.41093Z" fill="#D68B52"/>
<path d="M39.3904 41.7588C41.1769 41.7588 42.6251 39.8119 42.6251 37.4103C42.6251 35.0087 41.1769 33.0619 39.3904 33.0619C37.604 33.0619 36.1558 35.0087 36.1558 37.4103C36.1558 39.8119 37.604 41.7588 39.3904 41.7588Z" fill="#F2BD72"/>
<path d="M39.3905 33.0619H37.6099C37.6099 33.0619 37.6237 11.2647 37.6237 7.58657C37.6237 3.90844 35.0077 2.24126 34.0418 2.24126H7.60742C7.60742 2.24126 11.0793 2.65719 11.124 7.58657C11.1549 11.0963 11.124 29.1741 11.124 34.9525C11.124 40.7309 13.3137 41.7553 13.3137 41.7553H39.2255C39.2496 41.7553 39.2737 41.7519 39.2977 41.7484C39.3287 41.7484 39.3596 41.7553 39.3905 41.7553C41.178 41.7553 42.6252 39.8097 42.6252 37.4069C42.6252 35.0109 41.178 33.0619 39.3905 33.0619Z" fill="#FFD8A1"/>
<path d="M39.3905 33.0619H37.6099C37.6099 33.0619 37.6237 11.2647 37.6237 7.58657C37.6237 3.90844 35.0077 2.24126 34.0418 2.24126H7.60742C7.60742 2.24126 11.0793 2.65719 11.124 7.58657C11.1549 11.0963 11.124 29.1741 11.124 34.9525C11.124 40.7309 13.3137 41.7553 13.3137 41.7553H39.2255C39.2496 41.7553 39.2737 41.7519 39.2977 41.7484C39.3287 41.7484 39.3596 41.7553 39.3905 41.7553C41.178 41.7553 42.6252 39.8097 42.6252 37.4069C42.6252 35.0109 41.178 33.0619 39.3905 33.0619Z" fill="#FFD8A1"/>
<path d="M11.0894 34.6328L11.1203 31.5047C11.1203 31.5047 31.5837 33.7253 37.6028 26.6509V34.5538L11.0894 34.6328Z" fill="#F2BD72"/>
<g opacity="0.6">
<path opacity="0.77" d="M15.6473 10.3469C16.0495 10.3469 16.4552 10.34 16.8573 10.3469C17.1633 10.3538 17.4486 10.395 17.7614 10.3641C18.0983 10.3297 18.4352 10.2644 18.7789 10.2747C19.1983 10.2884 19.6005 10.4156 20.0233 10.4156C20.2295 10.4156 20.4152 10.3572 20.618 10.3469C20.8517 10.3366 21.0855 10.3469 21.3192 10.3469H22.7973M27.1595 10.3469C27.4105 10.3469 27.6717 10.3675 27.9192 10.3297C28.3042 10.2713 28.672 10.1131 29.0742 10.1475C29.5039 10.1853 29.8683 10.4363 30.2911 10.5016C30.9752 10.6013 31.618 10.1922 32.3089 10.1269C32.5289 10.1063 32.7489 10.12 32.9689 10.1372C33.4673 10.1784 33.9589 10.2403 34.4505 10.3194M15.6473 18.3941C15.9911 18.3941 16.3486 18.4284 16.6889 18.3941C17.1667 18.3459 17.6273 18.1775 18.1189 18.2016C18.6139 18.2256 19.0677 18.4422 19.5523 18.5281C20.2192 18.6416 20.8895 18.5006 21.5495 18.4147C22.2542 18.3219 22.9245 18.3975 23.6327 18.3975H26.2795M29.827 18.3941C30.0814 18.3941 30.3358 18.3906 30.5902 18.3941C31.0198 18.4009 31.3395 18.2634 31.7486 18.1844C32.3295 18.0709 32.9105 18.2497 33.4845 18.3081C33.9073 18.3494 34.3508 18.3975 34.7736 18.3941M23.5673 26.455C24.028 26.455 24.5092 26.4241 24.9595 26.4859C25.7398 26.5959 26.3964 26.3519 27.163 26.2728C27.8814 26.1972 28.5998 26.3416 29.3217 26.4C30.0711 26.4619 30.8239 26.4344 31.5767 26.4069C32.357 26.3794 33.1373 26.4516 33.9245 26.4516M15.3242 26.455C15.998 26.455 16.6614 26.5822 17.3352 26.5341C17.562 26.5169 17.7889 26.4859 18.0192 26.4756C18.4764 26.4516 18.937 26.5547 19.3873 26.5031C19.6864 26.4688 19.9717 26.455 20.2742 26.455M23.5673 6.3525C24.028 6.3525 24.5092 6.32157 24.9595 6.38344C25.7398 6.49344 26.3964 6.24938 27.163 6.17032C27.8814 6.09469 28.5998 6.23907 29.3217 6.29751C30.0711 6.35938 30.8239 6.33188 31.5767 6.30438C32.357 6.27688 33.1373 6.34907 33.9245 6.34907M15.3242 6.3525C15.998 6.3525 16.6614 6.47969 17.3352 6.43157C17.562 6.41438 17.7889 6.38344 18.0192 6.37313C18.4764 6.34907 18.937 6.45219 19.3873 6.40063C19.6864 6.36626 19.9717 6.3525 20.2742 6.3525M15.6473 14.3928C15.9773 14.3928 16.297 14.4066 16.6202 14.4306C17.1977 14.4719 17.7339 14.2106 18.2942 14.1522C18.9989 14.08 19.6933 14.3069 20.3911 14.41C21.082 14.5131 21.7833 14.4513 22.4777 14.41C22.7939 14.3894 23.1239 14.3619 23.4402 14.3688C23.7805 14.3756 24.1036 14.4822 24.4439 14.4788C24.8805 14.4753 25.2827 14.2828 25.7123 14.2175C26.668 14.0697 27.6202 14.5509 28.5861 14.4856C28.9023 14.465 29.2083 14.3859 29.5211 14.355C29.9061 14.3172 30.2945 14.3516 30.6795 14.3859L32.3914 14.5406M15.6473 22.4331C15.9773 22.4331 16.297 22.4469 16.6202 22.4709C17.1977 22.5122 17.7339 22.2509 18.2942 22.1925C18.9989 22.1203 19.6933 22.3472 20.3911 22.4503C21.082 22.5534 21.7833 22.4916 22.4777 22.4503C22.7939 22.4297 23.1239 22.4022 23.4402 22.4091C23.7805 22.4159 24.1036 22.5225 24.4439 22.5191C24.8805 22.5156 25.2827 22.3231 25.7123 22.2578C26.668 22.11 27.6202 22.5913 28.5861 22.5259C28.9023 22.5053 29.2083 22.4263 29.5211 22.3953C29.9061 22.3575 30.2945 22.3919 30.6795 22.4263L32.3914 22.5809M20.0714 30.4631C20.2502 30.4666 20.4117 30.4253 20.587 30.4184C20.8414 30.4047 21.0923 30.4769 21.3433 30.5147C21.9448 30.6041 22.5739 30.6488 23.172 30.5181C23.5089 30.4425 23.8286 30.3153 24.1723 30.2672C25.0352 30.1434 25.8877 30.5284 26.7642 30.525C27.5205 30.5181 28.3317 30.1744 29.0777 30.3738C29.5658 30.5009 30.0677 30.47 30.5833 30.47" stroke="#9E673C" stroke-width="3.005" stroke-miterlimit="10" stroke-linecap="round"/>
</g>
<path d="M13.1484 33.0619V35.1828H42.1644C41.6006 33.9144 40.5694 33.0619 39.3903 33.0619H13.1484Z" fill="#FCEBCD"/>
<path d="M13.3133 41.7588C15.0998 41.7588 16.548 39.8119 16.548 37.4103C16.548 35.0087 15.0998 33.0619 13.3133 33.0619C11.5268 33.0619 10.0786 35.0087 10.0786 37.4103C10.0786 39.8119 11.5268 41.7588 13.3133 41.7588Z" fill="#F2BD72"/>
<path d="M15.7128 37.1834C15.7128 39.0156 14.5647 40.0538 13.334 40.3906C11.7494 40.8238 11.0894 40.4456 11.0894 40.4456V33.9213C11.0894 33.9213 12.2065 33.6394 13.3994 33.9762C14.6162 34.3166 15.7128 35.3513 15.7128 37.1834Z" fill="#784D30"/>
<path d="M11.5087 40.5006C12.7845 40.5006 13.8187 39.0155 13.8187 37.1834C13.8187 35.3514 12.7845 33.8662 11.5087 33.8662C10.233 33.8662 9.19873 35.3514 9.19873 37.1834C9.19873 39.0155 10.233 40.5006 11.5087 40.5006Z" fill="#784D30"/>
<path d="M11.5087 40.5041C12.7845 40.5041 13.8187 39.0189 13.8187 37.1869C13.8187 35.3548 12.7845 33.8697 11.5087 33.8697C10.233 33.8697 9.19873 35.3548 9.19873 37.1869C9.19873 39.0189 10.233 40.5041 11.5087 40.5041Z" fill="#784D30"/>
<path d="M8.54582 38.7337C9.39254 38.7337 10.0789 38.0412 10.0789 37.1869C10.0789 36.3326 9.39254 35.64 8.54582 35.64C7.6991 35.64 7.0127 36.3326 7.0127 37.1869C7.0127 38.0412 7.6991 38.7337 8.54582 38.7337Z" fill="#BA793E"/>
<path d="M11.3506 36.245C11.7872 36.3791 12.32 37.3037 11.4125 38.1906C11.1822 38.4141 11.4194 38.9091 11.5775 39.325C11.7769 39.8544 11.9213 40.1397 12.3819 39.8234C13.0006 39.4041 13.5884 38.2044 13.5884 37.1869C13.5884 35.5403 12.6569 34.2031 11.5088 34.2031C10.9175 34.2031 10.4569 34.3922 10.0684 35.1931C9.89657 35.5506 9.87939 36.0078 10.4259 36.0628C10.4259 36.0663 11.0378 36.1522 11.3506 36.245Z" fill="#BA793E"/>
<path d="M7.67938 11.5706C9.59494 11.5706 11.1478 9.48218 11.1478 6.90594C11.1478 4.32971 9.59494 2.24126 7.67938 2.24126C5.76381 2.24126 4.21094 4.32971 4.21094 6.90594C4.21094 9.48218 5.76381 11.5706 7.67938 11.5706Z" fill="#F2BD72"/>
<path d="M10.0785 6.67906C10.0785 8.51125 8.93039 9.54937 7.69977 9.88625C6.11508 10.3194 5.45508 9.94125 5.45508 9.94125V3.41687C5.45508 3.41687 6.57227 3.135 7.76508 3.47187C8.97852 3.80875 10.0785 4.84687 10.0785 6.67906Z" fill="#784D30"/>
<path d="M5.87445 9.99625C7.15023 9.99625 8.18445 8.5111 8.18445 6.67907C8.18445 4.84703 7.15023 3.36188 5.87445 3.36188C4.59868 3.36188 3.56445 4.84703 3.56445 6.67907C3.56445 8.5111 4.59868 9.99625 5.87445 9.99625Z" fill="#784D30"/>
<path d="M5.87445 9.99969C7.15023 9.99969 8.18445 8.51453 8.18445 6.6825C8.18445 4.85047 7.15023 3.36531 5.87445 3.36531C4.59868 3.36531 3.56445 4.85047 3.56445 6.6825C3.56445 8.51453 4.59868 9.99969 5.87445 9.99969Z" fill="#784D30"/>
<path d="M2.90813 8.22937C3.75485 8.22937 4.44125 7.53681 4.44125 6.6825C4.44125 5.82818 3.75485 5.13562 2.90813 5.13562C2.0614 5.13562 1.375 5.82818 1.375 6.6825C1.375 7.53681 2.0614 8.22937 2.90813 8.22937Z" fill="#BA793E"/>
<path d="M5.71294 5.74062C6.1495 5.87468 6.68232 6.79937 5.77482 7.68625C5.5445 7.90968 5.78169 8.40468 5.93982 8.82062C6.13919 9.35 6.28357 9.63531 6.74419 9.31906C7.36294 8.89968 7.95075 7.7 7.95075 6.6825C7.95075 5.03593 7.01919 3.69875 5.87107 3.69875C5.27982 3.69875 4.81919 3.88781 4.43075 4.68875C4.25888 5.04625 4.24169 5.50343 4.78825 5.55843C4.78825 5.56187 5.40357 5.64437 5.71294 5.74062Z" fill="#BA793E"/>
</svg>
