<svg width="44" height="44" viewBox="0 0 44 44" fill="none" xmlns="http://www.w3.org/2000/svg">
<path d="M31.3742 34.6431C29.8101 33.0791 29.0367 32.0066 29.0367 32.0066L30.3773 30.6659L30.446 30.5972L31.7867 29.2566C31.7867 29.2566 32.8592 30.03 34.4232 31.5941C36.0698 33.2406 38.3832 34.2547 39.4832 35.3547C40.5076 36.3791 40.5832 37.3381 40.8342 38.4725C41.0129 39.2837 41.3326 40.2497 41.8929 41.0781C42.2092 41.5491 42.6938 41.8584 42.192 42.3569L42.1404 42.4084C41.6385 42.9103 41.3326 42.4256 40.8617 42.1094C40.0332 41.5525 39.0673 41.2294 38.256 41.0506C37.1217 40.8031 36.1626 40.7241 35.1382 39.6997C34.0348 38.6031 33.0173 36.2862 31.3742 34.6431Z" fill="#84B0C1"/>
<path d="M41.6866 42.075C42.027 42.3431 42.1095 42.4394 42.161 42.3844C42.2126 42.3328 42.0682 42.185 41.587 41.5903C41.1057 40.9991 38.0395 38.0428 38.0395 38.0428L37.8023 38.28C37.7988 38.28 41.1538 41.6522 41.6866 42.075Z" fill="black"/>
<path d="M37.6544 38.5516C37.2823 38.5516 36.9806 38.2499 36.9806 37.8778C36.9806 37.5057 37.2823 37.2041 37.6544 37.2041C38.0265 37.2041 38.3281 37.5057 38.3281 37.8778C38.3281 38.2499 38.0265 38.5516 37.6544 38.5516Z" fill="black"/>
<path d="M6.87865 2.65031C7.2224 2.34781 7.82396 1.79781 7.82396 1.79781C7.99446 1.6487 8.19283 1.53486 8.4076 1.46287C8.62237 1.39089 8.84928 1.36219 9.07521 1.37844C9.54271 1.40938 9.96552 1.61219 10.2543 1.94219L14.2968 5.89188C16.1324 7.68625 20.584 12.0484 20.8796 12.4231C21.1752 12.7978 20.9758 13.0075 20.9415 13.0453C20.4946 13.5369 19.6971 13.6022 19.1127 13.2859C18.5318 12.9697 18.164 12.3372 18.0574 11.6841C17.9852 11.2578 17.9611 11.0481 17.6449 10.7697C17.5315 10.67 11.1343 4.69563 10.1546 3.58531C9.99302 3.39969 9.50833 3.01125 8.97208 3.42031C8.88615 3.48563 7.03677 5.04281 7.03677 5.04281L5.86115 3.70563L5.86458 3.63C5.87833 3.53031 5.87833 3.53031 6.87865 2.65031Z" fill="#FFC107"/>
<path d="M18.5108 18.59L21.0889 16.0119C31.5974 26.6578 35.2927 30.745 36.2002 31.9137C36.3583 32.12 36.3411 32.4087 36.1589 32.5944L32.4877 36.1316C32.302 36.3172 32.0133 36.3344 31.807 36.1728C30.6383 35.2653 26.5442 31.7075 15.8949 21.1991C15.9327 21.1681 18.5108 18.59 18.5108 18.59Z" fill="#424242"/>
<path d="M7.87535 3.56125C8.08504 3.23812 8.59379 2.7775 8.94785 2.61937C9.35004 2.44062 9.64566 2.61593 9.90347 2.84281C10.3572 3.24156 13.365 6.36281 14.0216 7.18437C14.0972 7.27718 14.1729 7.38375 14.1729 7.50062C12.4541 5.87125 10.7044 4.25906 10.151 3.78125C9.72472 3.41343 9.31566 3.08343 8.97879 3.42031C8.94441 3.45468 8.7141 3.64031 8.29129 3.99437L7.87535 3.56125Z" fill="#D89A00"/>
<path d="M1.73252 5.76125C1.31658 5.16313 1.90096 3.85344 2.8394 2.94938C3.77783 2.04532 5.05658 1.41625 5.65127 1.8425C6.24596 2.27219 13.5541 7.37 21.9931 16.2113C22.2269 16.4794 22.2269 16.8816 21.9931 17.1153L16.971 22.1375C16.7372 22.3713 16.335 22.4056 16.0669 22.1375C7.25658 13.6641 2.14502 6.35938 1.73252 5.76125Z" fill="#424242"/>
<path d="M18.8721 10.9931C19.1334 11.165 19.0302 11.9522 19.1952 12.3544C19.3259 12.6775 19.3224 12.8459 19.0543 12.7634C18.769 12.6775 18.4459 12.2409 18.4459 11.5706C18.4459 11.2441 18.5971 10.8109 18.8721 10.9931Z" fill="#FFEE58"/>
<path d="M38.1151 36.1591C38.3866 36.4478 39.0604 36.9256 39.3457 37.2041C39.6482 37.4997 39.8304 38.1631 40.047 38.6788C40.2188 39.0913 40.4182 39.1016 40.3735 38.7544C40.3254 38.3797 40.2704 37.9534 40.2429 37.7816C40.1879 37.4344 40.0951 37.0872 39.9438 36.7675C39.4213 35.6572 38.2663 34.9972 37.7748 34.7566C37.6682 34.705 37.5513 34.7909 37.5685 34.9078C37.6098 35.2206 37.737 35.7569 38.1151 36.1591Z" fill="#A8E3F0"/>
<path d="M2.83602 2.94938C3.42727 2.37875 4.15602 1.92156 4.76445 1.76688C4.76445 1.76688 3.74008 2.50594 3.13852 3.24156C2.54039 3.97719 2.15539 5.02219 2.44758 5.58594C2.99414 6.37313 8.00945 12.7841 16.5207 21.6219L16.9641 21.285L17.3904 21.7044C27.067 31.2263 30.7279 34.4094 31.9241 35.3856L32.3848 36.2072C32.3057 36.2519 32.2198 36.2828 32.1304 36.2828C32.0204 36.2828 31.907 36.2484 31.8141 36.1728C30.6798 35.2928 26.8091 31.9344 16.9091 22.1925C16.7957 22.2784 16.6582 22.3266 16.5173 22.3266C16.3591 22.3266 16.201 22.2681 16.0704 22.1375C7.26352 13.6641 2.15195 6.35938 1.73602 5.76125C1.31664 5.16313 1.89758 3.85344 2.83602 2.94938Z" fill="#757575"/>
<path d="M17.2664 17.2941C18.3046 16.2559 19.5077 15.3072 20.5871 14.7606C20.5871 14.7606 20.8517 14.7434 21.1027 15.0219C21.2917 15.2316 21.3364 15.5272 21.3364 15.5272C20.5183 15.8881 19.3255 16.6616 17.978 18.0056C16.9674 19.0163 16.1424 20.0853 15.6611 21.0169C15.5614 21.2059 15.4892 21.3709 15.4308 21.5222C15.4308 21.5222 15.1317 21.5256 14.8842 21.3091C14.6024 21.065 14.6642 20.7659 14.6642 20.7659C15.1936 19.6488 16.1802 18.3803 17.2664 17.2941Z" fill="#FFC107"/>
<path d="M18.7582 18.7791C20.1263 17.4109 21.0098 16.7922 22.041 16.2731C22.041 16.2731 22.2782 16.4003 22.3401 16.8128C22.3813 17.0775 22.3573 17.2941 22.3573 17.2941L22.0651 17.0259C21.2607 17.4797 20.2776 18.2084 19.2292 19.2569C18.1807 20.3053 17.3729 21.3675 16.9192 22.1753L17.1873 22.4675C17.1873 22.4675 16.9707 22.4916 16.706 22.4503C16.2935 22.3884 16.1388 22.1994 16.1388 22.1994C16.6613 21.1544 17.3901 20.1506 18.7582 18.7791Z" fill="#212121"/>
<path d="M4.42063 4.44812C5.11844 3.75031 5.89531 3.09375 6.655 2.57125C6.655 2.57125 7.17406 2.37187 7.65188 2.81187C8.12969 3.25187 8.16406 3.7125 8.16406 3.7125C7.45594 4.14906 6.60688 4.79531 5.68563 5.71656C4.82281 6.57937 4.10094 7.48 3.60594 8.305C3.60594 8.305 3.07656 8.26375 2.70875 7.82375C2.3375 7.38375 2.46813 6.7925 2.46813 6.7925C3.00437 5.995 3.68844 5.18031 4.42063 4.44812Z" fill="#FFC107"/>
<path d="M7.10537 2.98719C7.28412 3.025 7.45256 3.1625 7.46287 3.34469C7.47318 3.53031 7.32537 3.67812 7.18787 3.80187C6.75475 4.19375 6.30787 4.5925 5.75443 4.77812C5.63068 4.81937 5.47599 4.84 5.39006 4.74375C5.33506 4.68187 5.33162 4.5925 5.33849 4.51C5.36599 4.17656 5.53099 3.86719 5.75443 3.61625C6.09818 3.22437 6.54849 2.87031 7.10537 2.98719Z" fill="#FFEE58"/>
<path d="M31.3774 35.8291C31.862 35.145 32.5942 34.1928 33.5224 33.2475C34.3577 32.3984 35.193 31.8347 35.8461 31.4806C35.9939 31.6559 36.1108 31.8003 36.2002 31.9172C36.3583 32.1234 36.3411 32.4122 36.1589 32.5978L32.4877 36.135C32.302 36.3206 32.0133 36.3378 31.807 36.1762C31.6936 36.0869 31.5527 35.97 31.3774 35.8291Z" fill="#FFC107"/>
<path d="M34.1069 32.8487C33.7425 33.1925 33.3953 33.6016 33.3197 34.0966C33.3094 34.1653 33.3059 34.2375 33.3265 34.3028C33.3747 34.4369 33.5294 34.5125 33.6737 34.5056C33.8181 34.4987 33.9487 34.4266 34.069 34.3475C34.2753 34.21 34.4575 34.0381 34.6397 33.8697C35.004 33.5294 36.0044 32.8969 35.6434 32.2747C35.2962 31.68 34.399 32.5703 34.1069 32.8487Z" fill="#FFEE58"/>
<path d="M32.4018 30.8206C32.7834 31.1197 33.9143 31.6559 33.0446 30.2947C32.8384 29.975 32.1406 29.1122 31.8449 28.765C30.7071 27.4175 27.9984 24.1347 23.4437 19.7519C23.4437 19.7519 21.8074 18.2703 21.4224 18.6072C21.0374 18.9441 21.6115 19.9375 23.454 22C25.0696 23.815 30.4218 29.2566 32.4018 30.8206ZM15.7162 14.0766C15.7162 14.0766 16.9227 15.5341 17.7993 14.795C18.4937 14.2072 16.8849 12.815 16.8849 12.815C16.8437 12.7703 11.3265 7.58656 9.68681 6.27C9.01306 5.72687 8.15368 5.12187 7.9165 5.33156C7.67931 5.54125 8.07118 6.20812 9.10587 7.23593C10.144 8.26375 15.6784 14.0353 15.7162 14.0766Z" fill="#757575"/>
</svg>
